<?xml version="1.0" encoding="UTF-8" standalone="no"?>
<!-- Created with Inkscape (http://www.inkscape.org/) -->

<svg
   width="48"
   height="48"
   viewBox="0 0 12.7 12.7"
   version="1.1"
   id="svg5"
   xmlns="http://www.w3.org/2000/svg"
   xmlns:svg="http://www.w3.org/2000/svg">
  <defs
     id="defs2" />
  <g
     id="layer1">
    <g
       aria-label="mu"
       id="text113"
       style="font-weight:bold;font-stretch:condensed;font-size:9.87778px;font-family:Ubuntu;-inkscape-font-specification:'Ubuntu Bold Condensed';stroke:#000000;stroke-width:0">
      <g
         id="g472"
         transform="matrix(1.1901243,0,0,1.1901243,-1.3564029,-1.4469749)"
         style="fill:#00e2e2;fill-opacity:1">
        <path
           d="m 2.4020132,8.5687823 5e-7,-4.8872272 c 0.2634075,-0.072437 0.5268149,-0.1284112 0.7902224,-0.1679223 0.2634075,-0.039511 0.5334001,-0.059267 0.809978,-0.059267 0.2634075,0 0.4971816,0.032926 0.7013224,0.098778 0.2107259,0.059267 0.388526,0.1547519 0.5334001,0.2864557 C 5.3554699,3.7539915 5.4772959,3.6848476 5.6024144,3.6321661 5.727533,3.5728991 5.8559442,3.5300957 5.9876479,3.5037549 c 0.1382889,-0.032926 0.2765778,-0.049389 0.4148667,-0.049389 0.3951112,0 0.7210779,0.079022 0.9779002,0.2370668 0.2568223,0.1580446 0.4477928,0.398404 0.5729113,0.7210781 0.1251185,0.3226741 0.1876778,0.7276631 0.1876778,1.2149669 V 8.7883673 L 6.9457925,7.5931567 V 5.6867444 c 0,-0.3029186 -0.019756,-0.5432779 -0.059267,-0.7210779 C 6.8470146,4.7878664 6.7745777,4.6627479 6.6692147,4.5903108 6.5704369,4.5112886 6.4354406,4.4717775 6.2642257,4.4717775 c -0.059267,0 -0.1185333,0.00659 -0.1778,0.019756 -0.059267,0.013171 -0.1185334,0.032926 -0.1778001,0.059267 -0.052681,0.026341 -0.1053628,0.055974 -0.1580445,0.0889 0.039511,0.1448741 0.069145,0.299626 0.0889,0.4642557 0.019755,0.1580445 0.029633,0.3325519 0.029633,0.5235223 V 8.7883673 L 4.6739031,7.5931563 V 5.6867444 c 0,-0.3226741 -0.019756,-0.5696186 -0.059267,-0.7408335 C 4.5751248,4.7681109 4.5026877,4.646285 4.397325,4.5804331 4.291962,4.507996 4.1470879,4.4717775 3.9627027,4.4717775 c -0.032926,0 -0.072437,0.00329 -0.1185334,0.00988 -0.039511,0.00659 -0.079022,0.013172 -0.1185334,0.019756 -0.039511,0.00659 -0.082315,0.016464 -0.1284111,0.029633 v 5.2329473 z"
           id="path325"
           style="fill:#00e2e2;fill-opacity:1" />
        <path
           d="M 8.8818375,9.430423 C 8.4472151,9.430423 8.0850298,9.351401 7.7952816,9.1933563 7.5121186,9.0287266 7.2981,8.7817821 7.1532259,8.4525228 7.014937,8.1232635 6.9457925,7.7116893 6.9457925,7.2178003 V 4.0964218 c 0,0 0.6748754,-0.363338 0.8437134,-0.00248 0.4668405,0.9977825 0.351498,3.0645907 0.351498,3.0645907 0,0.3029186 0.023048,0.5465705 0.069145,0.7309557 0.052681,0.1843853 0.1349962,0.3193816 0.2469445,0.404989 0.1185333,0.079022 0.2732852,0.1185334 0.4642556,0.1185334 0.059267,0 0.121826,-0.00329 0.187678,-0.00988 0.072437,-0.013171 0.141581,-0.029634 0.207433,-0.049389 V 4.0964218 l 1.185334,1.185334 v 3.9313561 c -0.263408,0.065852 -0.5301073,0.1185335 -0.8001,0.1580444 -0.263408,0.039511 -0.5366935,0.059267 -0.8198565,0.059267 z"
           id="path327"
           style="fill:#00e2e2;fill-opacity:1" />
      </g>
    </g>
  </g>
</svg>
